# xmcd CD database file
#
# Track frame offsets:
#	150
#	17738
#	43238
#	72087
#	98667
#	110331
#	137898
#	166060
#	189305
#	217432
#
# Disc length: 3301 seconds
#
# Revision: 0
# Processed by: cddbd v1.5PL3 Copyright (c) Steve Scherf et al.
# Submitted via: CDex 1.51
#
DISCID=8c0ce30a
DTITLE=Philippe Duchemin Trio - Three colors
DYEAR=1997
DGENRE=Jazz
TTITLE0=Jogging in Paris
TTITLE1=It ain't necessarily so
TTITLE2=Bingo
TTITLE3=Sweet progression
TTITLE4=Three colors
TTITLE5=You took advandage of me
TTITLE6=Honeysuckle rose
TTITLE7=Close your eyes
TTITLE8=Lotus blossom - As time goes by
TTITLE9=I've got rhythm
EXTD=YEAR: 1997
EXTT0=
EXTT1=
EXTT2=
EXTT3=
EXTT4=
EXTT5=
EXTT6=
EXTT7=
EXTT8=
EXTT9=
PLAYORDER=
